<svg xmlns="http://www.w3.org/2000/svg" viewBox="0.0030184462666511536 -0.0012521743774414062 74.03105163574219 74.9061050415039">
  <path d="M58.44 6.21a3.27 3.27 0 0 1-2 .3H37.95A31 31 0 0 0 6.68 39.29c.05 1.31-.13 1.9-1.6 1.73a17.39 17.39 0 0 0-3.46 0c-1.17.1-1.47-.38-1.55-1.49C-1 22.24 10.86 5.74 27.73 1.34 38.58-1.49 48.74.17 58.44 6.21z" fill="#090909"/>
  <path d="M15.9 68.38c6.48 0 13-.07 19.44 0 15.63.2 28.44-10 31.6-25.28a28.54 28.54 0 0 0 .46-7.88c-.08-1.13.3-1.46 1.37-1.41a32 32 0 0 0 3.79 0c1.12-.07 1.42.45 1.45 1.46.4 12.78-4.18 23.38-14.18 31.36a37.34 37.34 0 0 1-43.23 2.6c-.27-.17-.52-.36-.78-.54z" fill="#f16b5f"/>
  <path d="M69.1 16.93H67c-9.79 0-19.59-.05-29.38 0a20.52 20.52 0 0 0-19.88 15.4 17.12 17.12 0 0 0-.51 7.19c.17 1.1 0 1.61-1.27 1.5a22.84 22.84 0 0 0-3.79 0c-1.16.09-1.49-.36-1.59-1.47a27.17 27.17 0 0 1 15.79-26.66 27.48 27.48 0 0 1 11.35-2.47H62.3a2.82 2.82 0 0 1 2.32.95 41.14 41.14 0 0 1 4.48 5.56z" fill="#090909"/>
  <path d="M22.25 57.86h13.7a20.4 20.4 0 0 0 21-21.73c-.11-2.29-.11-2.29 2.18-2.29 4.48 0 4.48 0 4.41 4.46-.19 12.93-10.75 24.54-23.57 25.87-6.31.65-12.65.15-19 .28h-9.25a2.17 2.17 0 0 1-1.72-.39 32.63 32.63 0 0 1-4.47-5.28c-.84-1.27.37-.91.86-.91 5.29-.03 10.61-.02 15.86-.01z" fill="#f16b5f"/>
  <path d="M55 27.83H38.32c-7 0-11.26 5.16-9.95 12 .2 1 0 1.26-1 1.21a21.8 21.8 0 0 0-3.79 0c-1.49.19-1.86-.5-2-1.78-1.12-8.15 5.17-16.52 13.37-17.67a23.47 23.47 0 0 1 3.45-.26c10.57 0 21.14 0 31.71-.05a1.92 1.92 0 0 1 2.19 1.45c.52 1.66 1.49 3.17 1.53 5a26.21 26.21 0 0 1-4.77.12c-4.7-.01-9.38-.03-14.06-.02z" fill="#090909"/>
  <path d="M19.35 47h16.83a9.47 9.47 0 0 0 9.58-11.7c-.22-1.08-.07-1.54 1.13-1.46a17.39 17.39 0 0 0 3.46 0c1.62-.21 2 .59 2.21 2a16.23 16.23 0 0 1-13.08 17.4 22 22 0 0 1-3.44.3h-32A2 2 0 0 1 1.75 52c-.38-1.2-.86-2.38-1.31-3.56S.21 46.94 1.53 47h17.82z" fill="#f16b5f"/>
</svg>