<svg id="图层_1" data-name="图层 1" xmlns="http://www.w3.org/2000/svg" viewBox="0 0 800 800"><defs><style>.cls-1{fill:#ee6052;}</style></defs><path class="cls-1" d="M601.21,298.59h-8.12q-100.71,0-201.41,0c-43.88.06-76.81,18.92-98.09,57.58-11.15,20.25-14.71,49.76-8.21,71.3h42.71c-4.18-16.59-4.61-32.48.79-48.47,9-26.71,34.31-46.48,62.2-46.59,73.94-.3,147.88-.11,221.82-.09a30.74,30.74,0,0,1,3.27.31c27.56,80.69,6.27,200.88-95.68,267.23-89.8,58.45-201.56,43.61-266.67-8.77H262c45.82,0,91.65.66,137.45-.29,48.7-1,90.68-19.32,125.65-53.28,33.19-32.22,51.31-71.79,55.86-117.49,1.29-12.93.2-26.09.2-39.51H545.74c0,13,1.35,26-.23,38.63q-11.1,89.15-93.83,125.51c-19.93,8.73-40.91,11.53-62.3,11.62-55.57.26-111.14,0-166.71.21-5.54,0-9.5-1.38-12.56-6.08-7.4-11.37-15.06-22.57-22.53-33.91-1.19-1.8-1.89-3.92-3.33-7h8.32q99,0,198,0C435,509.53,468,490,488.78,451c11-20.75,13.8-43.35,9.35-66.56-.31-1.62-2.59-4-4-4.09-11-.34-22.09-.19-33.88-.19,3.56,14.4,4.63,28,1.2,41.68-6.93,27.71-31.79,49.21-60.35,51.94-6.31.6-12.66,1-19,1-68.28.07-136.55,0-204.82.19-6.16,0-8.48-2-10.15-7.76-39-134.6,49.67-270.38,183.42-294,64-11.33,122.89,1.71,176.61,38.19a15.73,15.73,0,0,1,5.37,5.68c-2.37,0-4.73,0-7.09,0-47.85.08-95.72-.46-143.56.43-46.14.87-86.7,17.58-120.58,48.73-38.8,35.67-59,80.42-60.64,133.19a189.56,189.56,0,0,0,1.15,23.68c.17,1.73,2.39,4.56,3.81,4.66,7.23.49,14.5.25,21.76.26h6.87c0-10.25-.51-19.89.09-29.46,3.6-57.66,30.19-101.18,80.9-129.48,22.63-12.64,47.16-18.23,73-18.26,59-.07,118,0,176.92-.12,4.35,0,7.29,1.22,9.68,4.72,9.38,13.74,18.85,27.41,28.28,41.11ZM416.93,404.33c.1-13.29-9.71-23.92-22.29-24.13s-21.8,9.46-22,23.21c-.16,13.46,9.34,24.51,21.06,24.53C406,428,416.83,416.94,416.93,404.33Z"/><path d="M536.75,217.86c-58.38,0-169.5,1.83-162.4.33C260.67,234.29,192.5,328,204.26,427.42l-44.45.85C134.59,239,359.64,75.7,536.75,217.86Z"/><path d="M570.64,248.69c14.4,20.16,33.78,45.49,34.73,51.67H397c-76.23-6.78-128,64.14-111.6,127.13l-51.13.48c-6.09-78.39,34.59-167.41,141.56-177.59Z"/><path d="M328.09,427.49l65.65.45c-34.88-7.72-20.05-48,.9-47.74l231.48.63c1.22-13.33-3.5-30.95-10.17-50l-231.67,1.27C337.43,339.31,315.46,377.42,328.09,427.49Z"/></svg>